<svg width="48" height="49" viewBox="0 0 48 49" fill="none" xmlns="http://www.w3.org/2000/svg">
<path d="M22 25.3736V29.2951C22 29.5701 22.111 29.8186 22.333 30.0406C22.555 30.2626 22.8035 30.3736 23.0785 30.3736H24.9835C25.2782 30.3736 25.5212 30.2626 25.7125 30.0406C25.9042 29.8186 26 29.5701 26 29.2951V25.3736H29.9835C30.2782 25.3736 30.5212 25.2626 30.7125 25.0406C30.9042 24.8186 31 24.5701 31 24.2951V22.3901C31 22.0954 30.9042 21.8524 30.7125 21.6611C30.5212 21.4694 30.2782 21.3736 29.9835 21.3736H26V17.3901C26 17.0954 25.9042 16.8524 25.7125 16.6611C25.5212 16.4694 25.2782 16.3736 24.9835 16.3736H23.0785C22.8035 16.3736 22.555 16.4694 22.333 16.6611C22.111 16.8524 22 17.0954 22 17.3901V21.3736H18.0785C17.8035 21.3736 17.555 21.4694 17.333 21.6611C17.111 21.8524 17 22.0954 17 22.3901V24.2951C17 24.5701 17.111 24.8186 17.333 25.0406C17.555 25.2626 17.8035 25.3736 18.0785 25.3736H22ZM24 44.4606C23.7987 44.4606 23.6102 44.4419 23.4345 44.4046C23.2585 44.3673 23.0865 44.3113 22.9185 44.2366C18.2452 42.6699 14.5407 39.8254 11.805 35.7031C9.06899 31.5804 7.70099 27.0854 7.70099 22.2181V12.5071C7.70099 11.7778 7.90416 11.1184 8.31049 10.5291C8.71682 9.93977 9.25132 9.51761 9.91399 9.26261L22.8065 4.44861C23.2132 4.29928 23.611 4.22461 24 4.22461C24.389 4.22461 24.7868 4.29928 25.1935 4.44861L38.086 9.26261C38.7487 9.51761 39.2852 9.93977 39.6955 10.5291C40.1058 11.1184 40.311 11.7778 40.311 12.5071V22.2181C40.311 27.0854 38.941 31.5804 36.201 35.7031C33.4613 39.8254 29.7548 42.6699 25.0815 44.2366C24.9135 44.3113 24.7415 44.3673 24.5655 44.4046C24.3898 44.4419 24.2013 44.4606 24 44.4606ZM24 41.1281C27.7933 39.8214 30.8905 37.4278 33.2915 33.9471C35.6922 30.4661 36.8925 26.5576 36.8925 22.2216V12.5071L24 7.64311L11.1075 12.5071V22.2216C11.1075 26.5576 12.3078 30.4661 14.7085 33.9471C17.1095 37.4278 20.2067 39.8214 24 41.1281Z" fill="#40100E"/>
</svg>
