<svg width="24" height="25" viewBox="0 0 24 25" fill="none" xmlns="http://www.w3.org/2000/svg">
<path fill-rule="evenodd" clip-rule="evenodd" d="M16 3.61719H8C5.23858 3.61719 3 5.85577 3 8.61719V16.6172C3 19.3786 5.23858 21.6172 8 21.6172H16C18.7614 21.6172 21 19.3786 21 16.6172V8.61719C21 5.85577 18.7614 3.61719 16 3.61719ZM19.25 16.6172C19.2445 18.4098 17.7926 19.8617 16 19.8672H8C6.20735 19.8617 4.75549 18.4098 4.75 16.6172V8.61719C4.75549 6.82454 6.20735 5.37268 8 5.36719H16C17.7926 5.37268 19.2445 6.82454 19.25 8.61719V16.6172ZM16.75 8.86719C17.3023 8.86719 17.75 8.41947 17.75 7.86719C17.75 7.31491 17.3023 6.86719 16.75 6.86719C16.1977 6.86719 15.75 7.31491 15.75 7.86719C15.75 8.41947 16.1977 8.86719 16.75 8.86719ZM12 8.11719C9.51472 8.11719 7.5 10.1319 7.5 12.6172C7.5 15.1025 9.51472 17.1172 12 17.1172C14.4853 17.1172 16.5 15.1025 16.5 12.6172C16.5027 11.4229 16.0294 10.2768 15.1849 9.43227C14.3404 8.58778 13.1943 8.11453 12 8.11719ZM9.25 12.6172C9.25 14.136 10.4812 15.3672 12 15.3672C13.5188 15.3672 14.75 14.136 14.75 12.6172C14.75 11.0984 13.5188 9.86719 12 9.86719C10.4812 9.86719 9.25 11.0984 9.25 12.6172Z" fill="#0B0302"/>
</svg>
