<svg width="24" height="25" viewBox="0 0 24 25" fill="none" xmlns="http://www.w3.org/2000/svg">
<path fill-rule="evenodd" clip-rule="evenodd" d="M4.5 3.61719C3.67157 3.61719 3 4.28876 3 5.11719V20.1172C3 20.9456 3.67157 21.6172 4.5 21.6172H19.5C20.3284 21.6172 21 20.9456 21 20.1172V5.11719C21 4.28876 20.3284 3.61719 19.5 3.61719H4.5ZM8.52076 7.61991C8.52639 8.57616 7.81061 9.16538 6.96123 9.16116C6.16107 9.15694 5.46357 8.51991 5.46779 7.62132C5.47201 6.77616 6.13998 6.09694 7.00764 6.11663C7.88795 6.13632 8.52639 6.78179 8.52076 7.61991ZM12.2797 10.3789H9.75971H9.7583V18.9388H12.4217V18.7391C12.4217 18.3592 12.4214 17.9792 12.4211 17.5991C12.4203 16.5853 12.4194 15.5704 12.4246 14.5569C12.426 14.3108 12.4372 14.0549 12.5005 13.82C12.7381 12.9425 13.5271 12.3758 14.4074 12.5151C14.9727 12.6036 15.3467 12.9313 15.5042 13.4643C15.6013 13.7975 15.6449 14.1561 15.6491 14.5035C15.6605 15.5511 15.6589 16.5987 15.6573 17.6464C15.6567 18.0162 15.6561 18.3862 15.6561 18.756V18.9374H18.328V18.7321C18.328 18.2801 18.3278 17.8282 18.3275 17.3763C18.327 16.2468 18.3264 15.1173 18.3294 13.9874C18.3308 13.4769 18.276 12.9735 18.1508 12.4799C17.9638 11.7458 17.5771 11.1383 16.9485 10.6996C16.5027 10.3874 16.0133 10.1863 15.4663 10.1638C15.404 10.1612 15.3412 10.1578 15.2781 10.1544C14.9984 10.1393 14.7141 10.1239 14.4467 10.1778C13.6817 10.3311 13.0096 10.6813 12.5019 11.2986C12.4429 11.3694 12.3852 11.4413 12.2991 11.5486L12.2797 11.5729V10.3789ZM5.68164 18.9416H8.33242V10.3845H5.68164V18.9416Z" fill="#0B0302"/>
</svg>
