<svg width="24" height="25" viewBox="0 0 24 25" fill="none" xmlns="http://www.w3.org/2000/svg">
<path d="M21.593 7.57703C21.4791 7.15443 21.2565 6.76904 20.9473 6.4592C20.6382 6.14936 20.2533 5.92589 19.831 5.81103C18.265 5.38103 12 5.37403 12 5.37403C12 5.37403 5.73596 5.36703 4.16896 5.77803C3.74689 5.89818 3.36279 6.12481 3.05353 6.43617C2.74427 6.74752 2.52025 7.13315 2.40296 7.55603C1.98996 9.12203 1.98596 12.37 1.98596 12.37C1.98596 12.37 1.98196 15.634 2.39196 17.184C2.62196 18.041 3.29696 18.718 4.15496 18.949C5.73696 19.379 11.985 19.386 11.985 19.386C11.985 19.386 18.25 19.393 19.816 18.983C20.2385 18.8684 20.6237 18.6454 20.9336 18.3362C21.2435 18.027 21.4673 17.6423 21.583 17.22C21.997 15.655 22 12.408 22 12.408C22 12.408 22.02 9.14303 21.593 7.57703ZM9.99596 15.379L10.001 9.37903L15.208 12.384L9.99596 15.379Z" fill="#0B0302"/>
</svg>
