<svg width="32" height="33" viewBox="0 0 32 33" fill="none" xmlns="http://www.w3.org/2000/svg">
<path d="M14.5411 23.2458L20.2251 19.5262C20.5787 19.3048 20.7554 18.9912 20.7554 18.5852C20.7554 18.1792 20.5787 17.863 20.2251 17.6365L14.5744 13.8755C14.1984 13.6268 13.8088 13.6082 13.4054 13.8195C13.0021 14.0308 12.8004 14.3672 12.8004 14.8285V22.2928C12.8004 22.7568 12.9966 23.0952 13.3888 23.3078C13.781 23.5205 14.1651 23.4998 14.5411 23.2458ZM4.73877 28.6995C4.12544 28.6995 3.59366 28.4743 3.14344 28.0238C2.693 27.5736 2.46777 27.0418 2.46777 26.4285V9.53218C2.46777 9.21218 2.57688 8.94162 2.79511 8.72051C3.01333 8.49918 3.28277 8.38851 3.60344 8.38851H10.4838V5.05518C10.4838 4.4474 10.709 3.91696 11.1594 3.46384C11.6097 3.01073 12.1414 2.78418 12.7548 2.78418H19.2461C19.8594 2.78418 20.3912 3.01073 20.8414 3.46384C21.2919 3.91696 21.5171 4.4474 21.5171 5.05518V8.38851H28.3974C28.7174 8.38851 28.988 8.49918 29.2091 8.72051C29.4304 8.94162 29.5411 9.21218 29.5411 9.53218V26.4285C29.5411 27.0418 29.3151 27.5736 28.8631 28.0238C28.4113 28.4743 27.8777 28.6995 27.2621 28.6995H4.73877ZM4.73877 26.4285H27.2621V10.6675H4.73877V26.4285ZM12.7548 8.38851H19.2461V5.05518H12.7548V8.38851Z" fill="white"/>
</svg>
