<svg width="33" height="41" viewBox="0 0 33 41" fill="none" xmlns="http://www.w3.org/2000/svg">
<path d="M7.66143 25.2997C8.08276 25.2997 8.43309 25.1545 8.71243 24.8642C8.99176 24.5739 9.13143 24.2319 9.13143 23.8382C9.13143 23.4112 8.99293 23.06 8.71593 22.7847C8.43926 22.509 8.08893 22.3712 7.66493 22.3712C7.27459 22.3712 6.93343 22.5082 6.64143 22.7822C6.34943 23.0559 6.20343 23.4062 6.20343 23.8332C6.20343 24.2269 6.34926 24.5697 6.64093 24.8617C6.93293 25.1537 7.27309 25.2997 7.66143 25.2997ZM10.6049 19.4072C11.0319 19.4072 11.3831 19.262 11.6584 18.9717C11.9338 18.6814 12.0714 18.3394 12.0714 17.9457C12.0714 17.5187 11.9346 17.1675 11.6609 16.8922C11.3873 16.6169 11.0369 16.4792 10.6099 16.4792C10.2163 16.4792 9.87343 16.616 9.58143 16.8897C9.28943 17.1634 9.14343 17.5137 9.14343 17.9407C9.14343 18.3344 9.28859 18.6772 9.57893 18.9692C9.86926 19.2612 10.2113 19.4072 10.6049 19.4072ZM10.6049 31.1922C11.0319 31.1922 11.3831 31.047 11.6584 30.7567C11.9338 30.4664 12.0714 30.1244 12.0714 29.7307C12.0714 29.3034 11.9346 28.952 11.6609 28.6767C11.3873 28.4014 11.0369 28.2637 10.6099 28.2637C10.2163 28.2637 9.87343 28.4005 9.58143 28.6742C9.28943 28.9479 9.14343 29.2982 9.14343 29.7252C9.14343 30.1192 9.28859 30.4622 9.57893 30.7542C9.86926 31.0462 10.2113 31.1922 10.6049 31.1922ZM13.5534 25.2997C13.9751 25.2997 14.3256 25.1545 14.6049 24.8642C14.8843 24.5739 15.0239 24.2319 15.0239 23.8382C15.0239 23.4112 14.8854 23.06 14.6084 22.7847C14.3314 22.509 13.9811 22.3712 13.5574 22.3712C13.1668 22.3712 12.8254 22.5082 12.5334 22.7822C12.2414 23.0559 12.0954 23.4062 12.0954 23.8332C12.0954 24.2269 12.2414 24.5697 12.5334 24.8617C12.8254 25.1537 13.1654 25.2997 13.5534 25.2997ZM13.5534 13.5147C13.9751 13.5147 14.3256 13.3695 14.6049 13.0792C14.8843 12.7889 15.0239 12.4469 15.0239 12.0532C15.0239 11.6262 14.8854 11.275 14.6084 10.9997C14.3314 10.7244 13.9811 10.5867 13.5574 10.5867C13.1668 10.5867 12.8254 10.7235 12.5334 10.9972C12.2414 11.2709 12.0954 11.6212 12.0954 12.0482C12.0954 12.4419 12.2414 12.7847 12.5334 13.0767C12.8254 13.3687 13.1654 13.5147 13.5534 13.5147ZM16.4974 19.4072C16.9244 19.4072 17.2756 19.262 17.5509 18.9717C17.8263 18.6814 17.9639 18.3394 17.9639 17.9457C17.9639 17.5187 17.8271 17.1675 17.5534 16.8922C17.2798 16.6169 16.9294 16.4792 16.5024 16.4792C16.1088 16.4792 15.7659 16.616 15.4739 16.8897C15.1819 17.1634 15.0359 17.5137 15.0359 17.9407C15.0359 18.3344 15.1811 18.6772 15.4714 18.9692C15.7618 19.2612 16.1038 19.4072 16.4974 19.4072ZM16.4974 31.1922C16.9244 31.1922 17.2756 31.047 17.5509 30.7567C17.8263 30.4664 17.9639 30.1244 17.9639 29.7307C17.9639 29.3034 17.8271 28.952 17.5534 28.6767C17.2798 28.4014 16.9294 28.2637 16.5024 28.2637C16.1088 28.2637 15.7659 28.4005 15.4739 28.6742C15.1819 28.9479 15.0359 29.2982 15.0359 29.7252C15.0359 30.1192 15.1811 30.4622 15.4714 30.7542C15.7618 31.0462 16.1038 31.1922 16.4974 31.1922ZM19.4459 25.2997C19.8676 25.2997 20.2181 25.1545 20.4974 24.8642C20.7768 24.5739 20.9164 24.2319 20.9164 23.8382C20.9164 23.4112 20.7779 23.06 20.5009 22.7847C20.2239 22.509 19.8736 22.3712 19.4499 22.3712C19.0593 22.3712 18.7179 22.5082 18.4259 22.7822C18.1339 23.0559 17.9879 23.4062 17.9879 23.8332C17.9879 24.2269 18.1339 24.5697 18.4259 24.8617C18.7179 25.1537 19.0579 25.2997 19.4459 25.2997ZM19.4459 13.5147C19.8676 13.5147 20.2181 13.3695 20.4974 13.0792C20.7768 12.7889 20.9164 12.4469 20.9164 12.0532C20.9164 11.6262 20.7779 11.275 20.5009 10.9997C20.2239 10.7244 19.8736 10.5867 19.4499 10.5867C19.0593 10.5867 18.7179 10.7235 18.4259 10.9972C18.1339 11.2709 17.9879 11.6212 17.9879 12.0482C17.9879 12.4419 18.1339 12.7847 18.4259 13.0767C18.7179 13.3687 19.0579 13.5147 19.4459 13.5147ZM22.3899 19.4072C22.8169 19.4072 23.1681 19.262 23.4434 18.9717C23.7188 18.6814 23.8564 18.3394 23.8564 17.9457C23.8564 17.5187 23.7196 17.1675 23.4459 16.8922C23.1723 16.6169 22.8219 16.4792 22.3949 16.4792C22.0013 16.4792 21.6584 16.616 21.3664 16.8897C21.0744 17.1634 20.9284 17.5137 20.9284 17.9407C20.9284 18.3344 21.0736 18.6772 21.3639 18.9692C21.6543 19.2612 21.9963 19.4072 22.3899 19.4072ZM22.3899 31.1922C22.8169 31.1922 23.1681 31.047 23.4434 30.7567C23.7188 30.4664 23.8564 30.1244 23.8564 29.7307C23.8564 29.3034 23.7196 28.952 23.4459 28.6767C23.1723 28.4014 22.8219 28.2637 22.3949 28.2637C22.0013 28.2637 21.6584 28.4005 21.3664 28.6742C21.0744 28.9479 20.9284 29.2982 20.9284 29.7252C20.9284 30.1192 21.0736 30.4622 21.3639 30.7542C21.6543 31.0462 21.9963 31.1922 22.3899 31.1922ZM25.3384 25.2997C25.7598 25.2997 26.1101 25.1545 26.3894 24.8642C26.6688 24.5739 26.8084 24.2319 26.8084 23.8382C26.8084 23.4112 26.6701 23.06 26.3934 22.7847C26.1164 22.509 25.7661 22.3712 25.3424 22.3712C24.9518 22.3712 24.6104 22.5082 24.3184 22.7822C24.0264 23.0559 23.8804 23.4062 23.8804 23.8332C23.8804 24.2269 24.0264 24.5697 24.3184 24.8617C24.6104 25.1537 24.9504 25.2997 25.3384 25.2997ZM16.4989 40.0987C11.8473 40.0987 7.96793 38.5035 4.86093 35.3132C1.75426 32.1225 0.200928 28.1514 0.200928 23.3997C0.200928 21.346 0.654427 19.2952 1.56143 17.2472C2.46809 15.1989 3.63059 13.206 5.04893 11.2687C6.46693 9.33136 8.03559 7.48319 9.75493 5.72419C11.4739 3.96519 13.1544 2.35203 14.7964 0.884695C15.0618 0.660695 15.3366 0.501028 15.6209 0.405695C15.9053 0.310361 16.1988 0.262695 16.5014 0.262695C16.8041 0.262695 17.0971 0.310361 17.3804 0.405695C17.6638 0.501028 17.9381 0.660695 18.2034 0.884695C19.8454 2.35203 21.5259 3.96519 23.2449 5.72419C24.9643 7.48319 26.5329 9.33136 27.9509 11.2687C29.3693 13.206 30.5338 15.1989 31.4444 17.2472C32.3554 19.2952 32.8109 21.346 32.8109 23.3997C32.8109 28.1514 31.2551 32.1225 28.1434 35.3132C25.0318 38.5035 21.1503 40.0987 16.4989 40.0987ZM16.4989 36.6922C20.2009 36.6922 23.2754 35.4274 25.7224 32.8977C28.1691 30.368 29.3924 27.202 29.3924 23.3997C29.3924 20.8064 28.2941 17.8525 26.0974 14.5382C23.9004 11.2242 20.7013 7.69653 16.4999 3.95519C12.2986 7.69653 9.09943 11.2242 6.90243 14.5382C4.70576 17.8525 3.60743 20.8064 3.60743 23.3997C3.60743 27.202 4.83059 30.368 7.27693 32.8977C9.72293 35.4274 12.7969 36.6922 16.4989 36.6922Z" fill="#D73630"/>
</svg>
