<svg width="48" height="48" viewBox="0 0 48 48" fill="none" xmlns="http://www.w3.org/2000/svg">
<path d="M23.9899 40.8425C24.6206 40.8425 25.2338 40.8091 25.8294 40.7425C26.4251 40.6758 27.0073 40.5713 27.5759 40.429L25.0424 36.619H17.6979V34.517C17.6979 33.361 18.1074 32.3715 18.9264 31.5485C19.7458 30.7255 20.7329 30.314 21.8879 30.314H26.0879V24H21.9214C21.3594 24 20.8609 23.7851 20.4259 23.3555C19.9913 22.9261 19.7739 22.427 19.7739 21.858V17.648H18.8374C17.9354 17.648 17.1636 17.3408 16.5219 16.7265C15.8806 16.1121 15.5599 15.3486 15.5599 14.436C15.5599 14.12 15.6079 13.8048 15.7039 13.4905C15.7999 13.1758 15.9353 12.8861 16.1099 12.6215L19.3739 7.80746C15.8306 8.80646 12.9086 10.786 10.6079 13.746C8.3076 16.706 7.15743 20.124 7.15743 24H9.24543V21.867C9.24543 21.305 9.45243 20.8156 9.86643 20.399C10.2801 19.9823 10.7681 19.774 11.3304 19.774H15.5509C16.1133 19.774 16.6116 19.9823 17.0459 20.399C17.4806 20.8156 17.6979 21.3048 17.6979 21.8665V23.999C17.6979 24.5663 17.4813 25.0563 17.0479 25.469C16.6146 25.8816 16.1176 26.088 15.5569 26.088V28.2115C15.5569 29.3795 15.1444 30.368 14.3194 31.177C13.4944 31.9856 12.5026 32.39 11.3439 32.39H9.39543C10.8908 34.9403 12.9173 36.9866 15.4749 38.529C18.0329 40.0713 20.8713 40.8425 23.9899 40.8425ZM39.9954 29.164C40.2601 28.3386 40.4674 27.4963 40.6174 26.637C40.7674 25.7773 40.8424 24.8915 40.8424 23.9795C40.8424 20.0525 39.6509 16.5875 37.2679 13.5845C34.8846 10.5815 31.8706 8.6058 28.2259 7.65746V13.447C29.3819 13.447 30.3736 13.859 31.2009 14.683C32.0283 15.5066 32.4419 16.4971 32.4419 17.6545V21.862C33.1073 21.862 33.7111 21.9525 34.2534 22.1335C34.7954 22.3141 35.2998 22.6403 35.7664 23.112L39.9954 29.164ZM24.0149 44.299C21.2083 44.299 18.5743 43.7676 16.1129 42.705C13.6516 41.6423 11.4989 40.189 9.65493 38.345C7.81093 36.501 6.35759 34.3476 5.29493 31.885C4.23226 29.4223 3.70093 26.7861 3.70093 23.9765C3.70093 21.1671 4.23226 18.5305 5.29493 16.0665C6.35759 13.6028 7.81026 11.4571 9.65293 9.62946C11.4956 7.80146 13.6486 6.35446 16.1119 5.28846C18.5753 4.22213 21.2121 3.68896 24.0224 3.68896C26.8324 3.68896 29.4699 4.2218 31.9349 5.28746C34.3996 6.35313 36.5454 7.7993 38.3724 9.62596C40.1998 11.4526 41.6463 13.6006 42.7119 16.07C43.7779 18.5393 44.3109 21.1781 44.3109 23.9865C44.3109 26.7945 43.7778 29.429 42.7114 31.89C41.6454 34.3513 40.1984 36.5005 38.3704 38.3375C36.5428 40.1741 34.3949 41.627 31.9269 42.696C29.4589 43.7646 26.8216 44.299 24.0149 44.299Z" fill="white"/>
</svg>
