<svg width="48" height="48" viewBox="0 0 48 48" fill="none" xmlns="http://www.w3.org/2000/svg">
<path d="M9.10743 42.299C8.18743 42.299 7.38976 41.9611 6.71443 41.2855C6.03876 40.6101 5.70093 39.8125 5.70093 38.8925V9.10746C5.70093 8.18413 6.03876 7.38363 6.71443 6.70596C7.38976 6.02796 8.18743 5.68896 9.10743 5.68896H38.8924C39.8158 5.68896 40.6163 6.02796 41.2939 6.70596C41.9719 7.38363 42.3109 8.18413 42.3109 9.10746V26.2585C42.3109 26.7395 42.1441 27.1436 41.8104 27.471C41.4764 27.7983 41.0683 27.962 40.5859 27.962C40.1033 27.962 39.7003 27.7983 39.3769 27.471C39.0539 27.1436 38.8924 26.7395 38.8924 26.2585V9.10746H9.10743V38.8925H23.9019C24.3829 38.8925 24.7871 39.057 25.1144 39.386C25.4418 39.715 25.6054 40.1211 25.6054 40.6045C25.6054 41.0878 25.4418 41.491 25.1144 41.814C24.7871 42.1373 24.3829 42.299 23.9019 42.299H9.10743ZM35.0879 39.475L42.6804 31.8945C43.0168 31.5625 43.4124 31.3965 43.8674 31.3965C44.3224 31.3965 44.7211 31.5646 45.0634 31.901C45.4058 32.237 45.5769 32.6413 45.5769 33.114C45.5769 33.5863 45.4071 33.9921 45.0674 34.3315L36.2934 43.1055C35.9574 43.4451 35.5586 43.615 35.0969 43.615C34.6353 43.615 34.2344 43.4451 33.8944 43.1055L29.4944 38.6815C29.1468 38.3551 28.9729 37.9626 28.9729 37.504C28.9729 37.0456 29.1444 36.6465 29.4874 36.3065C29.8304 35.9665 30.2366 35.7965 30.7059 35.7965C31.1753 35.7965 31.5798 35.9665 31.9194 36.3065L35.0879 39.475ZM14.9999 25.5C15.3999 25.5 15.7499 25.35 16.0499 25.05C16.3499 24.75 16.4999 24.4 16.4999 24C16.4999 23.6 16.3499 23.25 16.0499 22.95C15.7499 22.65 15.3999 22.5 14.9999 22.5C14.5999 22.5 14.2499 22.65 13.9499 22.95C13.6499 23.25 13.4999 23.6 13.4999 24C13.4999 24.4 13.6499 24.75 13.9499 25.05C14.2499 25.35 14.5999 25.5 14.9999 25.5ZM14.9999 17.348C15.3999 17.348 15.7499 17.2 16.0499 16.904C16.3499 16.608 16.4999 16.256 16.4999 15.848C16.4999 15.448 16.3499 15.098 16.0499 14.798C15.7499 14.498 15.3999 14.348 14.9999 14.348C14.5999 14.348 14.2499 14.498 13.9499 14.798C13.6499 15.098 13.4999 15.448 13.4999 15.848C13.4999 16.256 13.6499 16.608 13.9499 16.904C14.2499 17.2 14.5999 17.348 14.9999 17.348ZM32.2999 25.5C32.7249 25.5 33.0813 25.3553 33.3689 25.066C33.6563 24.777 33.7999 24.4186 33.7999 23.991C33.7999 23.5636 33.6563 23.2083 33.3689 22.925C33.0813 22.6416 32.7249 22.5 32.2999 22.5H23.0999C22.6749 22.5 22.3188 22.6446 22.0314 22.934C21.7438 23.223 21.5999 23.5813 21.5999 24.009C21.5999 24.4363 21.7438 24.7916 22.0314 25.075C22.3188 25.3583 22.6749 25.5 23.0999 25.5H32.2999ZM32.2999 17.348C32.7249 17.348 33.0813 17.2033 33.3689 16.914C33.6563 16.625 33.7999 16.2686 33.7999 15.845C33.7999 15.4216 33.6563 15.0663 33.3689 14.779C33.0813 14.4916 32.7249 14.348 32.2999 14.348H23.0999C22.6749 14.348 22.3188 14.4945 22.0314 14.7875C21.7438 15.0808 21.5999 15.4391 21.5999 15.8625C21.5999 16.2861 21.7438 16.6396 22.0314 16.923C22.3188 17.2063 22.6749 17.348 23.0999 17.348H32.2999Z" fill="white"/>
</svg>
