<svg width="48" height="48" viewBox="0 0 48 48" fill="none" xmlns="http://www.w3.org/2000/svg">
<path d="M21.85 26.2544L18.26 22.5019C17.942 22.1529 17.5568 21.9784 17.1045 21.9784C16.6521 21.9784 16.2513 22.1323 15.902 22.4399C15.553 22.7933 15.3785 23.1956 15.3785 23.6469C15.3785 24.0983 15.553 24.4986 15.902 24.8479L20.6445 29.5399C20.9871 29.8879 21.3896 30.0619 21.852 30.0619C22.3143 30.0619 22.7155 29.8879 23.0555 29.5399L32.098 20.5479C32.4136 20.2399 32.5715 19.8573 32.5715 19.3999C32.5715 18.9426 32.397 18.5559 32.048 18.2399C31.732 17.9656 31.3556 17.8368 30.919 17.8534C30.4823 17.8701 30.1266 18.0196 29.852 18.3019L21.85 26.2544ZM16.385 44.0269L13.3085 38.7629L7.15645 37.5129C6.73412 37.4383 6.38395 37.2139 6.10595 36.8399C5.82795 36.4656 5.72229 36.0683 5.78895 35.6479L6.48895 29.6989L2.57495 25.1314C2.27629 24.8218 2.12695 24.4438 2.12695 23.9974C2.12695 23.5514 2.27629 23.1751 2.57495 22.8684L6.48895 18.3509L5.78895 12.4019C5.72229 11.9816 5.82795 11.5843 6.10595 11.2099C6.38395 10.8359 6.73412 10.6076 7.15645 10.5249L13.3125 9.28444L16.385 3.97294C16.6076 3.60328 16.9285 3.34094 17.3475 3.18594C17.7661 3.03094 18.183 3.04861 18.598 3.23894L24 5.76494L29.402 3.23894C29.8166 3.05628 30.2335 3.03211 30.6525 3.16644C31.0711 3.30044 31.392 3.55261 31.615 3.92294L34.7375 9.28444L40.8435 10.5249C41.2658 10.6076 41.616 10.8359 41.894 11.2099C42.172 11.5843 42.2776 11.9816 42.211 12.4019L41.511 18.3509L45.425 22.8684C45.7236 23.1781 45.873 23.5561 45.873 24.0024C45.873 24.4484 45.7236 24.8248 45.425 25.1314L41.511 29.6989L42.211 35.6479C42.2776 36.0683 42.172 36.4656 41.894 36.8399C41.616 37.2139 41.2658 37.4383 40.8435 37.5129L34.7415 38.7629L31.615 44.0769C31.392 44.4473 31.0711 44.6994 30.6525 44.8334C30.2335 44.9678 29.8166 44.9436 29.402 44.7609L24 42.2349L18.598 44.7609C18.1833 44.9436 17.7665 44.9594 17.3475 44.8084C16.9288 44.6578 16.608 44.3973 16.385 44.0269ZM18.6945 40.9184L23.9985 38.6734L29.452 40.9184L32.7785 35.9544L38.5805 34.4664L37.9925 28.5499L41.9945 23.9989L37.9925 19.3479L38.5805 13.4334L32.7785 12.0454L29.3565 7.08144L24.002 9.32494L18.548 7.08144L15.225 12.0484L9.43145 13.4284L10.0075 19.3479L6.00545 23.9999L10.0075 28.5519L9.43145 34.5719L15.223 35.9514L18.6945 40.9184Z" fill="white"/>
</svg>
