<svg width="49" height="49" viewBox="0 0 49 49" fill="none" xmlns="http://www.w3.org/2000/svg">
<path d="M21.3593 28.6135L16.6868 23.941C16.3548 23.609 15.9478 23.443 15.4658 23.443C14.9838 23.443 14.557 23.6256 14.1853 23.991C13.8537 24.3306 13.6878 24.7411 13.6878 25.2225C13.6878 25.7035 13.8577 26.11 14.1973 26.442L20.1538 32.4485C20.4975 32.7881 20.8983 32.958 21.3563 32.958C21.8143 32.958 22.2172 32.7881 22.5648 32.4485L34.3713 20.63C34.7447 20.2646 34.9313 19.843 34.9313 19.365C34.9313 18.887 34.7447 18.4623 34.3713 18.091C34.006 17.759 33.574 17.6013 33.0753 17.618C32.5767 17.6346 32.1583 17.809 31.8203 18.141L21.3593 28.6135ZM24.3348 44.6735C21.5528 44.6735 18.9272 44.1421 16.4578 43.0795C13.9888 42.0168 11.8323 40.5635 9.98833 38.7195C8.14433 36.8755 6.691 34.7195 5.62833 32.2515C4.56567 29.7835 4.03433 27.1583 4.03433 24.376C4.03433 21.5606 4.56567 18.9183 5.62833 16.449C6.691 13.98 8.14367 11.8316 9.98633 10.004C11.829 8.17598 13.9847 6.72898 16.4533 5.66298C18.922 4.59664 21.5478 4.06348 24.3308 4.06348C27.1468 4.06348 29.79 4.59631 32.2603 5.66197C34.7303 6.72764 36.8788 8.17381 38.7058 10.0005C40.5332 11.8271 41.9797 13.9751 43.0453 16.4445C44.1113 18.9138 44.6443 21.5571 44.6443 24.3745C44.6443 27.1578 44.1112 29.784 43.0448 32.253C41.9788 34.722 40.5318 36.878 38.7038 38.721C36.8762 40.564 34.7283 42.0168 32.2603 43.0795C29.7923 44.1421 27.1505 44.6735 24.3348 44.6735ZM24.3333 41.267C29.0347 41.267 33.0255 39.6211 36.3058 36.3295C39.5858 33.0375 41.2258 29.0525 41.2258 24.3745C41.2258 19.6731 39.5858 15.6823 36.3058 12.402C33.0255 9.12197 29.0327 7.48198 24.3273 7.48198C19.6553 7.48198 15.6728 9.12197 12.3798 12.402C9.08717 15.6823 7.44083 19.6751 7.44083 24.3805C7.44083 29.0525 9.08667 33.035 12.3783 36.328C15.6703 39.6206 19.6553 41.267 24.3333 41.267Z" fill="#40100E"/>
</svg>
