<svg width="71" height="37" viewBox="0 0 71 37" fill="none" xmlns="http://www.w3.org/2000/svg">
<g clip-path="url(#clip0_2705_69)">
<path d="M67.9112 17.4551L67.8741 17.4923C68.1343 16.7861 68.6546 16.5259 69.1006 16.5259C69.7325 16.5259 70.29 17.0091 70.29 17.7153C70.29 17.864 70.29 18.0498 70.2157 18.2728C68.9148 21.618 66.1643 23.3277 63.4882 23.5879C62.2617 25.6693 60.2546 27.1932 57.3926 27.1932C53.3041 27.1932 51.4829 23.9596 51.4829 20.4286C51.4829 16.0799 54.2334 11.248 58.8422 11.248C59.8457 11.248 60.7006 11.4711 61.4068 11.7684C63.4882 12.5489 64.8263 15.2622 64.8263 18.1613C64.8263 19.0905 64.7519 20.0197 64.5289 20.9118C65.9042 20.4286 67.205 19.3135 67.9112 17.4551ZM60.1431 14.2958V14.2587C59.3254 14.2587 58.8422 15.3365 58.8422 16.6374C58.8422 18.533 59.8829 20.2799 61.5183 20.9118C61.7785 20.0941 61.89 19.1649 61.89 18.087C61.89 16.0056 61.2581 14.2958 60.1431 14.2958ZM57.4298 24.4799C58.4705 24.4799 59.5112 24.0339 60.3289 23.1047C57.913 22.0268 56.3891 19.4994 56.3891 17.0834C56.3891 16.2657 56.5378 15.4109 56.7608 14.6675C55.2741 15.8941 54.4192 18.31 54.4192 20.4286C54.4192 23.179 55.7201 24.4799 57.4298 24.4799Z" fill="#0B0302"/>
<path d="M52.0568 17.4553L52.0196 17.4925C52.2798 16.7863 52.7258 16.489 53.1718 16.489C53.8037 16.489 54.4355 17.0465 54.4355 17.7527C54.4355 17.9385 54.3984 18.0872 54.324 18.273C52.8745 21.804 50.7187 25.9297 47.2621 28.3456L47.1878 29.089C46.7789 33.5492 44.5117 36.3739 41.6497 36.3739C39.4939 36.3739 38.2302 34.8872 38.2302 33.1403C38.2302 29.981 41.4638 28.8288 44.4745 26.8961C44.5488 26.1155 44.586 25.2235 44.6231 24.2199C43.1364 25.8553 41.5382 26.5244 40.1258 26.5244C37.301 26.5244 34.9966 24.2199 34.9966 20.689C34.9966 15.2624 38.5647 11.6943 42.5417 11.6943H42.5789C45.2922 11.6943 48.1913 13.1438 48.1913 15.7456C48.1913 16.6005 47.8196 21.2465 47.5223 24.8518C49.5293 22.9562 51.2019 19.8713 52.0568 17.4553ZM40.5346 23.8483C41.9099 23.8483 43.7683 22.9934 44.9205 18.7934C45.1063 17.8642 45.2178 17.0465 45.1807 16.0801C44.9577 15.0766 44.1028 14.4819 42.8762 14.4819C40.3488 14.4819 37.9329 16.8978 37.9329 20.5775C37.9329 22.8076 38.9736 23.8483 40.5346 23.8483ZM41.947 33.6607H41.9842C42.7647 33.6607 43.6196 33.1403 44.1771 29.7952C42.5417 30.7615 41.0178 31.7279 41.0178 32.8801C41.0178 33.3633 41.3895 33.6607 41.947 33.6607Z" fill="#0B0302"/>
<path d="M35.6488 17.4551L35.6117 17.4923C35.8718 16.7861 36.3922 16.5259 36.8382 16.5259C37.4701 16.5259 38.0276 17.0091 38.0276 17.7153C38.0276 17.864 38.0276 18.0498 37.9533 18.2728C36.6524 21.618 33.9019 23.3277 31.2258 23.5879C29.9993 25.6693 27.9922 27.1932 25.1302 27.1932C21.0417 27.1932 19.2205 23.9596 19.2205 20.4286C19.2205 16.0799 21.9709 11.248 26.5798 11.248C27.5833 11.248 28.4382 11.4711 29.1444 11.7684C31.2258 12.5489 32.5639 15.2622 32.5639 18.1613C32.5639 19.0905 32.4895 20.0197 32.2665 20.9118C33.6418 20.4286 34.9426 19.3135 35.6488 17.4551ZM27.8807 14.2958V14.2587C27.063 14.2587 26.5798 15.3365 26.5798 16.6374C26.5798 18.533 27.6205 20.2799 29.2559 20.9118C29.5161 20.0941 29.6276 19.1649 29.6276 18.087C29.6276 16.0056 28.9957 14.2958 27.8807 14.2958ZM25.1674 24.4799C26.2081 24.4799 27.2488 24.0339 28.0665 23.1047C25.6506 22.0268 24.1267 19.4994 24.1267 17.0834C24.1267 16.2657 24.2754 15.4109 24.4984 14.6675C23.0117 15.8941 22.1568 18.31 22.1568 20.4286C22.1568 23.179 23.4577 24.4799 25.1674 24.4799Z" fill="#0B0302"/>
<path d="M21.1096 16.2825C20.5892 16.2825 20.1432 16.5427 19.8458 17.2489C18.8795 19.702 16.8723 23.8649 14.828 23.8649C13.5408 23.8649 12.5447 23.5738 11.5381 23.2796C10.5101 22.9792 9.47133 22.6755 8.10044 22.6755C7.61724 22.6755 6.9482 22.7499 6.31633 22.8614C8.21991 20.2656 8.93105 17.1219 9.62013 11.1796C8.32267 11.097 7.26726 10.8573 6.49798 10.6152C5.67633 18.1517 4.74327 21.0253 1.3357 23.8649C0.889674 24.2366 0.666664 24.757 0.666664 25.2774C0.666664 26.0951 1.37288 26.8013 2.26493 26.8013C2.56228 26.8013 2.89679 26.6898 3.23131 26.5411C5.12693 25.6862 6.27916 25.4632 7.69158 25.4632C8.58975 25.4632 9.66449 25.7201 10.8152 25.995C12.1406 26.3118 13.5667 26.6526 14.9396 26.6526C17.9502 26.6526 19.9202 23.7163 22.1131 18.0294C22.2247 17.8436 22.2618 17.6206 22.2618 17.4347C22.2618 16.7285 21.7043 16.2825 21.1096 16.2825Z" fill="#0B0302"/>
<path fill-rule="evenodd" clip-rule="evenodd" d="M6.68656 9.07689C7.35965 9.31186 8.41047 9.58542 9.7729 9.66635L9.99591 9.66624C14.196 9.66624 16.9465 7.06442 16.9465 3.94223C16.9465 1.93511 15.3854 0.374023 13.1924 0.374023C10.2561 0.374023 8.21181 2.38114 7.17108 6.35821C5.87017 5.652 4.97812 4.38826 4.53209 2.79C4.30907 2.00945 3.82588 1.52625 3.15683 1.52625C2.33912 1.52625 1.81875 2.15813 1.81875 3.01301C1.81875 5.5405 3.78871 7.95647 6.68788 9.07154L6.68656 9.07689ZM10.2189 6.95291C10.7764 4.38826 11.6685 3.16169 12.8579 3.16169C13.4898 3.16169 13.8986 3.53338 13.8986 4.20242C13.8986 5.42899 12.5977 6.87857 10.2189 6.95291Z" fill="#0B0302"/>
</g>
<defs>
<clipPath id="clip0_2705_69">
<rect width="70" height="36" fill="white" transform="translate(0.666666 0.374023)"/>
</clipPath>
</defs>
</svg>
