<svg width="48" height="48" viewBox="0 0 48 48" fill="none" xmlns="http://www.w3.org/2000/svg">
<path d="M42.5585 16.5795C43.4592 16.5795 44.2542 16.9213 44.9435 17.6049C45.6325 18.2886 45.977 19.0823 45.977 19.9859V23.5399C45.977 23.7929 46 24.0528 46.046 24.3195C46.092 24.5861 46.0612 24.8361 45.9535 25.0695L39.6055 39.725C39.2809 40.5056 38.7365 41.1656 37.9725 41.705C37.2089 42.2443 36.409 42.514 35.573 42.514H13.325V16.5795L24.1565 5.08595C24.6735 4.54761 25.2797 4.22278 25.975 4.11145C26.6704 4.00012 27.339 4.12312 27.981 4.48045C28.6074 4.82978 29.0742 5.33595 29.3815 5.99895C29.6889 6.66195 29.7549 7.35395 29.5795 8.07495L27.776 16.5795H42.5585ZM16.6 18.1285V39.1074H36.223L42.5465 24.0979V19.9859H23.6575L26.2 7.97845L16.6 18.1285ZM6.95002 42.514C6.00502 42.514 5.20102 42.1824 4.53802 41.5194C3.87502 40.8564 3.54352 40.0524 3.54352 39.1074V19.9859C3.54352 19.0493 3.87502 18.2473 4.53802 17.5799C5.20102 16.9129 6.00502 16.5795 6.95002 16.5795H13.325V19.9859H6.95002V39.1074H13.325V42.514H6.95002Z" fill="#89475E"/>
</svg>
